<svg id="visual" viewBox="0 0 900 600" width="900" height="600" xmlns="http://www.w3.org/2000/svg" xmlns:xlink="http://www.w3.org/1999/xlink" version="1.1"><path d="M0 350L21.5 365.3C43 380.7 86 411.3 128.8 420.3C171.7 429.3 214.3 416.7 257.2 412.8C300 409 343 414 385.8 418C428.7 422 471.3 425 514.2 427.5C557 430 600 432 642.8 421.3C685.7 410.7 728.3 387.3 771.2 381.7C814 376 857 388 878.5 394L900 400L900 601L878.5 601C857 601 814 601 771.2 601C728.3 601 685.7 601 642.8 601C600 601 557 601 514.2 601C471.3 601 428.7 601 385.8 601C343 601 300 601 257.2 601C214.3 601 171.7 601 128.8 601C86 601 43 601 21.5 601L0 601Z" fill="#87ee9c"></path><path d="M0 456L21.5 452.7C43 449.3 86 442.7 128.8 432.3C171.7 422 214.3 408 257.2 412C300 416 343 438 385.8 450.5C428.7 463 471.3 466 514.2 460C557 454 600 439 642.8 435.2C685.7 431.3 728.3 438.7 771.2 443.3C814 448 857 450 878.5 451L900 452L900 601L878.5 601C857 601 814 601 771.2 601C728.3 601 685.7 601 642.8 601C600 601 557 601 514.2 601C471.3 601 428.7 601 385.8 601C343 601 300 601 257.2 601C214.3 601 171.7 601 128.8 601C86 601 43 601 21.5 601L0 601Z" fill="#8ae198"></path><path d="M0 468L21.5 471.8C43 475.7 86 483.3 128.8 490.3C171.7 497.3 214.3 503.7 257.2 504C300 504.3 343 498.7 385.8 495.2C428.7 491.7 471.3 490.3 514.2 493.3C557 496.3 600 503.7 642.8 496.5C685.7 489.3 728.3 467.7 771.2 465.2C814 462.7 857 479.3 878.5 487.7L900 496L900 601L878.5 601C857 601 814 601 771.2 601C728.3 601 685.7 601 642.8 601C600 601 557 601 514.2 601C471.3 601 428.7 601 385.8 601C343 601 300 601 257.2 601C214.3 601 171.7 601 128.8 601C86 601 43 601 21.5 601L0 601Z" fill="#8cd494"></path><path d="M0 541L21.5 535.5C43 530 86 519 128.8 515.8C171.7 512.7 214.3 517.3 257.2 513.8C300 510.3 343 498.7 385.8 499.5C428.7 500.3 471.3 513.7 514.2 519.5C557 525.3 600 523.7 642.8 516.2C685.7 508.7 728.3 495.3 771.2 490C814 484.7 857 487.3 878.5 488.7L900 490L900 601L878.5 601C857 601 814 601 771.2 601C728.3 601 685.7 601 642.8 601C600 601 557 601 514.2 601C471.3 601 428.7 601 385.8 601C343 601 300 601 257.2 601C214.3 601 171.7 601 128.8 601C86 601 43 601 21.5 601L0 601Z" fill="#8dc790"></path><path d="M0 527L21.5 530.3C43 533.7 86 540.3 128.8 544.8C171.7 549.3 214.3 551.7 257.2 555.2C300 558.7 343 563.3 385.8 565.2C428.7 567 471.3 566 514.2 563C557 560 600 555 642.8 556.3C685.7 557.7 728.3 565.3 771.2 562.5C814 559.7 857 546.3 878.5 539.7L900 533L900 601L878.5 601C857 601 814 601 771.2 601C728.3 601 685.7 601 642.8 601C600 601 557 601 514.2 601C471.3 601 428.7 601 385.8 601C343 601 300 601 257.2 601C214.3 601 171.7 601 128.8 601C86 601 43 601 21.5 601L0 601Z" fill="#8dbb8d"></path></svg>