<svg id="visual" viewBox="0 0 900 600" width="900" height="600" xmlns="http://www.w3.org/2000/svg" xmlns:xlink="http://www.w3.org/1999/xlink" version="1.1"><rect x="0" y="0" width="900" height="600" fill="#eeeeee"></rect><path d="M0 376L30 384.5C60 393 120 410 180 407C240 404 300 381 360 376C420 371 480 384 540 392.3C600 400.7 660 404.3 720 401.8C780 399.3 840 390.7 870 386.3L900 382L900 601L870 601C840 601 780 601 720 601C660 601 600 601 540 601C480 601 420 601 360 601C300 601 240 601 180 601C120 601 60 601 30 601L0 601Z" fill="#c6d9c6" stroke-linecap="round" stroke-linejoin="miter"></path></svg>